<svg id="Layer_1" data-name="Layer 1" xmlns="http://www.w3.org/2000/svg" viewBox="0 0 644.35 201.26"><defs><style>.cls-1{fill:#4040c7;}.cls-2{fill:#fff;}.cls-3{fill:#111235;}</style></defs><rect class="cls-1" width="400.36" height="201.26" rx="24.45"/><path class="cls-2" d="M97.44,29.53H134.3v78q0,24.57-3.61,37.4a42.46,42.46,0,0,1-14.54,21.73q-10.92,8.91-28,8.91-18,0-27.93-5.88A38.83,38.83,0,0,1,45,152.52c-3.6-7.55-2.49-22.66-2.67-33.75H73.73q.09,9.51,1.38,14.11a15.6,15.6,0,0,0,4.39,7.44,8.78,8.78,0,0,0,6,1.86,9.55,9.55,0,0,0,9.06-5.53q2.88-5.52,2.88-18.64Z" transform="translate(-20.18 -0.52)"/><path class="cls-2" d="M147.06,100.35q0-34.83,16.44-54.24t45.79-19.4q30.09,0,46.37,19.06t16.28,53.41q0,24.94-7.12,40.9t-20.55,24.84q-13.44,8.88-33.5,8.87-20.39,0-33.75-7.66t-21.66-24.26Q147,125.28,147.06,100.35Zm37.24.19q0,21.54,6.78,31a21.54,21.54,0,0,0,18.46,9.41q12,0,18.58-9.21t6.57-33.09q0-20.09-6.86-29.35A22,22,0,0,0,209.21,60q-11.27,0-18.09,9.41T184.3,100.54Z" transform="translate(-20.18 -0.52)"/><path class="cls-2" d="M287.56,27.59H357q17.36,0,26.64,10.15t9.29,25.11q0,12.57-6.63,21.54-4.41,6-12.93,9.47,12.93,3.67,19,12.61t6.1,22.46a44.17,44.17,0,0,1-4.34,19.8,35.31,35.31,0,0,1-11.87,13.91q-4.67,3.2-14.08,4.64-12.51,1.93-16.61,1.93h-64Zm38.8,56.26h16.3q8.77,0,12.21-3.56T358.31,70q0-6.26-3.44-9.77t-12-3.52H326.36Zm0,54.32h19.18q9.7,0,13.69-4.07c2.66-2.7,4-6.35,4-10.92a13.74,13.74,0,0,0-3.94-10.24q-3.94-3.87-13.83-3.87H326.36Z" transform="translate(-20.18 -0.52)"/><path class="cls-3" d="M435.11,30h99.81V60.4H472.44V83h57.95v29H472.44v28h64.29v32.21H435.11Z" transform="translate(-20.18 -0.52)"/><path class="cls-3" d="M549.27,30h34.78l45.38,78.69V30h35.1V172.26h-35.1L584.29,94.17v78.09h-35Z" transform="translate(-20.18 -0.52)"/></svg>