<svg id="Layer_1" data-name="Layer 1" xmlns="http://www.w3.org/2000/svg" viewBox="0 0 688.82 164.63"><defs><style>.cls-1{fill:#4040c7;}.cls-2{fill:#111235;}</style></defs><path class="cls-1" d="M61.77,19H103v87.33q0,27.5-4,41.86a47.44,47.44,0,0,1-16.26,24.32q-12.23,10-31.31,10-20.17,0-31.26-6.58A43.42,43.42,0,0,1,3,156.64c-4-8.44-2.79-25.36-3-37.77H35.24q.09,10.63,1.54,15.79A17.53,17.53,0,0,0,41.69,143c1.57,1.39,3.82,2.08,6.72,2.08a10.7,10.7,0,0,0,10.14-6.19q3.21-6.18,3.22-20.87Z" transform="translate(0 -18.41)"/><path class="cls-1" d="M117.43,100.83q0-39,18.41-60.7t51.25-21.72q33.67,0,51.9,21.34t18.22,59.78q0,27.9-8,45.77t-23,27.8q-15,9.94-37.5,9.94-22.83,0-37.77-8.58t-24.25-27.15Q117.43,128.74,117.43,100.83Zm41.69.22q0,24.11,7.59,34.64a24.14,24.14,0,0,0,20.66,10.53q13.42,0,20.79-10.31t7.37-37q0-22.48-7.69-32.85T187,55.65q-12.6,0-20.24,10.54T159.12,101.05Z" transform="translate(0 -18.41)"/><path class="cls-1" d="M274.4,18.41h80.69q20.18,0,31,11.79t10.8,29.2q0,14.59-7.71,25-5.15,7-15,11,15,4.28,22.13,14.66t7.09,26.11a51.22,51.22,0,0,1-5,23A41.06,41.06,0,0,1,384.5,175.4q-5.43,3.71-16.37,5.39Q353.57,183,348.81,183H274.4Zm45.1,65.4h19q10.2,0,14.2-4.15t4-12q0-7.26-4-11.36t-13.91-4.09H319.5Zm0,63.14h22.3q11.29,0,15.93-4.72t4.63-12.7c0-4.94-1.53-8.9-4.59-11.91s-8.41-4.49-16.07-4.49H319.5Z" transform="translate(0 -18.41)"/><path class="cls-2" d="M421.29,18.41h115V54.49H464.14V79.3h67.65v33.83H464.14V144.7h74.42V183H421.29Z" transform="translate(0 -18.41)"/><path class="cls-2" d="M555.76,18.41h40l52.47,91.08V18.41h40.6V183H648.67l-52.32-90.4V183H555.76Z" transform="translate(0 -18.41)"/></svg>